<svg width="55" height="95" viewBox="0 0 55 95" fill="none" xmlns="http://www.w3.org/2000/svg">
<path fill-rule="evenodd" clip-rule="evenodd" d="M42.8732 48.2131V19.7869C42.8732 10.7059 35.9904 3.34426 27.5 3.34426C19.0096 3.34426 12.1268 10.7059 12.1268 19.7869V48.2131C12.1268 57.2941 19.0096 64.6558 27.5 64.6558C35.9904 64.6558 42.8732 57.2941 42.8732 48.2131ZM27.5 0C17.2827 0 9 8.85887 9 19.7869V48.2131C9 59.1411 17.2827 68 27.5 68C37.7173 68 46 59.1411 46 48.2131V19.7869C46 8.85887 37.7173 0 27.5 0Z" fill="white"/>
<path d="M25.3654 26.3997C25.3654 24.9007 26.4804 23.6854 27.8558 23.6854C29.2312 23.6854 30.3462 24.9007 30.3462 26.3997V41.6003C30.3462 43.0993 29.2312 44.3146 27.8558 44.3146C26.4804 44.3146 25.3654 43.0993 25.3654 41.6003V26.3997Z" fill="white"/>
<path d="M9.80273 89.9717C9.80273 89.2842 9.55924 88.7542 9.07227 88.3818C8.59245 88.0094 7.72233 87.6335 6.46191 87.2539C5.2015 86.8743 4.19889 86.4518 3.4541 85.9863C2.02897 85.0911 1.31641 83.9238 1.31641 82.4844C1.31641 81.224 1.82845 80.1855 2.85254 79.3691C3.88379 78.5527 5.2194 78.1445 6.85938 78.1445C7.94792 78.1445 8.91829 78.3451 9.77051 78.7461C10.6227 79.1471 11.2923 79.7201 11.7793 80.4648C12.2663 81.2025 12.5098 82.0225 12.5098 82.9248H9.80273C9.80273 82.1084 9.54492 81.471 9.0293 81.0127C8.52083 80.5472 7.79036 80.3145 6.83789 80.3145C5.94987 80.3145 5.25879 80.5042 4.76465 80.8838C4.27767 81.2633 4.03418 81.7933 4.03418 82.4736C4.03418 83.0465 4.29915 83.5264 4.8291 83.9131C5.35905 84.2926 6.23275 84.665 7.4502 85.0303C8.66764 85.3883 9.64518 85.8001 10.3828 86.2656C11.1204 86.724 11.6611 87.2539 12.0049 87.8555C12.3486 88.4499 12.5205 89.1481 12.5205 89.9502C12.5205 91.2536 12.0192 92.292 11.0166 93.0654C10.0212 93.8317 8.66764 94.2148 6.95605 94.2148C5.82454 94.2148 4.78255 94.0072 3.83008 93.5918C2.88477 93.1693 2.14714 92.5892 1.61719 91.8516C1.0944 91.1139 0.833008 90.2546 0.833008 89.2734H3.55078C3.55078 90.1615 3.8444 90.849 4.43164 91.3359C5.01888 91.8229 5.86035 92.0664 6.95605 92.0664C7.90137 92.0664 8.61035 91.8766 9.08301 91.4971C9.56283 91.1104 9.80273 90.6019 9.80273 89.9717ZM19.4277 92.1309C20.0794 92.1309 20.6201 91.9411 21.0498 91.5615C21.4795 91.182 21.7087 90.7129 21.7373 90.1543H24.1973C24.1686 90.8776 23.943 91.5544 23.5205 92.1846C23.098 92.8076 22.5251 93.3018 21.8018 93.667C21.0785 94.0322 20.2979 94.2148 19.46 94.2148C17.8343 94.2148 16.5452 93.6885 15.5928 92.6357C14.6403 91.583 14.1641 90.1292 14.1641 88.2744V88.0059C14.1641 86.237 14.6367 84.8226 15.582 83.7627C16.5273 82.6956 17.8164 82.1621 19.4492 82.1621C20.8314 82.1621 21.9557 82.5667 22.8223 83.376C23.696 84.1781 24.1543 85.2344 24.1973 86.5449H21.7373C21.7087 85.8789 21.4795 85.3311 21.0498 84.9014C20.6273 84.4717 20.0866 84.2568 19.4277 84.2568C18.5827 84.2568 17.931 84.5648 17.4727 85.1807C17.0143 85.7894 16.7816 86.7168 16.7744 87.9629V88.3818C16.7744 89.6423 17 90.584 17.4512 91.207C17.9095 91.8229 18.5684 92.1309 19.4277 92.1309ZM32.2539 84.7617C31.9102 84.7044 31.5557 84.6758 31.1904 84.6758C29.9945 84.6758 29.1888 85.1341 28.7734 86.0508V94H26.1631V82.377H28.6553L28.7197 83.6768C29.3499 82.667 30.2236 82.1621 31.3408 82.1621C31.7132 82.1621 32.0212 82.2122 32.2646 82.3125L32.2539 84.7617ZM33.0273 88.0811C33.0273 86.9424 33.2529 85.9183 33.7041 85.0088C34.1553 84.0921 34.7891 83.3903 35.6055 82.9033C36.4219 82.4092 37.36 82.1621 38.4199 82.1621C39.9883 82.1621 41.2594 82.667 42.2334 83.6768C43.2145 84.6865 43.7445 86.0257 43.8232 87.6943L43.834 88.3066C43.834 89.4525 43.612 90.4766 43.168 91.3789C42.7311 92.2812 42.1009 92.9795 41.2773 93.4736C40.4609 93.9678 39.5156 94.2148 38.4414 94.2148C36.8014 94.2148 35.4873 93.6706 34.499 92.582C33.5179 91.4863 33.0273 90.029 33.0273 88.21V88.0811ZM35.6377 88.3066C35.6377 89.5026 35.8848 90.4408 36.3789 91.1211C36.873 91.7943 37.5605 92.1309 38.4414 92.1309C39.3223 92.1309 40.0062 91.7871 40.4932 91.0996C40.9873 90.4121 41.2344 89.4059 41.2344 88.0811C41.2344 86.9066 40.9801 85.9756 40.4717 85.2881C39.9704 84.6006 39.2865 84.2568 38.4199 84.2568C37.5677 84.2568 36.891 84.597 36.3896 85.2773C35.8883 85.9505 35.6377 86.9603 35.6377 88.3066ZM48.8184 94H46.208V77.5H48.8184V94ZM54.4473 94H51.8369V77.5H54.4473V94Z" fill="white"/>
</svg>
